HIERARCHY
ROOT Hips
{
	OFFSET 0.000000 83.214638 0.000000
	CHANNELS 6 Xposition Yposition Zposition Xrotation Yrotation Zrotation
	JOINT Pelvis
	{
		OFFSET 0.000000 0.000000 0.000000
		CHANNELS 3 Xrotation Yrotation Zrotation
		JOINT LeftUpLeg
		{
			OFFSET 8.479700 -4.795502 -0.379100
			CHANNELS 3 Xrotation Yrotation Zrotation
			JOINT LeftLeg
			{
				OFFSET 0.024144 -32.555107 0.112900
				CHANNELS 3 Xrotation Yrotation Zrotation
				JOINT LeftFoot
				{
					OFFSET -0.024144 -32.638630 -3.012600
					CHANNELS 3 Xrotation Yrotation Zrotation
					JOINT LeftToeBase
					{
						OFFSET 0.970200 -13.225400 11.864200
						CHANNELS 3 Xrotation Yrotation Zrotation
						End Site
						{
							OFFSET 0.000000 12.319262 0.000000
						}
					}
					JOINT LFootTongue
					{
						OFFSET 1.142400 -1.059800 6.665200
						CHANNELS 3 Xrotation Yrotation Zrotation
						End Site
						{
							OFFSET 0.000000 12.319262 0.000000
						}
					}
				}
				JOINT LeftPantLeg
				{
					OFFSET 0.918482 -16.533964 -2.284700
					CHANNELS 3 Xrotation Yrotation Zrotation
					End Site
					{
						OFFSET 0.350399 24.744368 0.000000
					}
				}
			}
		}
		JOINT RightUpLeg
		{
			OFFSET -8.479700 -4.795502 -0.379100
			CHANNELS 3 Xrotation Yrotation Zrotation
			JOINT RightLeg
			{
				OFFSET -0.023144 -32.555092 0.112900
				CHANNELS 3 Xrotation Yrotation Zrotation
				JOINT RightFoot
				{
					OFFSET 0.023144 -32.638641 -3.012700
					CHANNELS 3 Xrotation Yrotation Zrotation
					JOINT RightToeBase
					{
						OFFSET -0.970200 -13.225400 11.864200
						CHANNELS 3 Xrotation Yrotation Zrotation
						End Site
						{
							OFFSET 0.000000 12.319244 0.000000
						}
					}
					JOINT RFootTongue
					{
						OFFSET -1.142200 -1.059800 6.665200
						CHANNELS 3 Xrotation Yrotation Zrotation
						End Site
						{
							OFFSET 0.000000 12.319243 0.000000
						}
					}
				}
				JOINT RightPantLeg
				{
					OFFSET -0.919482 -16.533978 -2.284800
					CHANNELS 3 Xrotation Yrotation Zrotation
					End Site
					{
						OFFSET -0.350400 24.744419 0.000000
					}
				}
			}
		}
	}
	JOINT Spine
	{
		OFFSET 0.000000 7.722000 1.166200
		CHANNELS 3 Xrotation Yrotation Zrotation
		JOINT Spine1
		{
			OFFSET 0.000000 12.024101 0.248800
			CHANNELS 3 Xrotation Yrotation Zrotation
			JOINT Spine2
			{
				OFFSET 0.000000 11.502998 -0.491200
				CHANNELS 3 Xrotation Yrotation Zrotation
				JOINT Neck
				{
					OFFSET 0.000000 18.430702 -3.123100
					CHANNELS 3 Xrotation Yrotation Zrotation
					JOINT Head
					{
						OFFSET 0.000000 9.051102 1.034000
						CHANNELS 3 Xrotation Yrotation Zrotation
						JOINT HairB
						{
							OFFSET 0.208400 24.786102 24.822300
							CHANNELS 3 Xrotation Yrotation Zrotation
							End Site
							{
								OFFSET 0.000000 32.263779 0.000000
							}
						}
						JOINT HairA
						{
							OFFSET -7.081100 24.428299 23.196600
							CHANNELS 3 Xrotation Yrotation Zrotation
							End Site
							{
								OFFSET 0.000000 32.263779 0.000000
							}
						}
						JOINT Hat
						{
							OFFSET 16.728800 15.048294 -15.439601
							CHANNELS 3 Xrotation Yrotation Zrotation
							End Site
							{
								OFFSET 0.000000 32.263779 0.000000
							}
						}
					}
				}
				JOINT LeftShoulder
				{
					OFFSET 6.197800 13.665199 -4.064700
					CHANNELS 3 Xrotation Yrotation Zrotation
					JOINT LeftArm
					{
						OFFSET 7.778100 -0.187103 -1.709300
						CHANNELS 3 Xrotation Yrotation Zrotation
						JOINT LeftForeArm
						{
							OFFSET 22.049376 0.000000 0.000000
							CHANNELS 3 Xrotation Yrotation Zrotation
							JOINT LeftHand
							{
								OFFSET 23.009392 0.000000 0.000000
								CHANNELS 3 Xrotation Yrotation Zrotation
								JOINT LeftHandThumb1
								{
									OFFSET 3.507191 -2.063065 3.133727
									CHANNELS 3 Xrotation Yrotation Zrotation
									JOINT LeftHandThumb2
									{
										OFFSET 3.101337 -1.790558 1.790558
										CHANNELS 3 Xrotation Yrotation Zrotation
										JOINT LeftHandThumb3
										{
											OFFSET 3.058640 -1.765907 1.765906
											CHANNELS 3 Xrotation Yrotation Zrotation
											End Site
											{
												OFFSET -0.415260 3.926476 -0.049563
											}
										}
									}
								}
								JOINT LeftHandIndex1
								{
									OFFSET 11.334419 -0.901459 3.706815
									CHANNELS 3 Xrotation Yrotation Zrotation
									JOINT LeftHandIndex2
									{
										OFFSET 3.283112 0.000000 0.000000
										CHANNELS 3 Xrotation Yrotation Zrotation
										JOINT LeftHandIndex3
										{
											OFFSET 3.323853 0.000000 0.000000
											CHANNELS 3 Xrotation Yrotation Zrotation
											End Site
											{
												OFFSET -1.135597 3.097809 0.402452
											}
										}
									}
								}
								JOINT LeftHandMiddle1
								{
									OFFSET 11.335861 0.000000 0.000000
									CHANNELS 3 Xrotation Yrotation Zrotation
									JOINT LeftHandMiddle2
									{
										OFFSET 3.410492 0.000000 0.000000
										CHANNELS 3 Xrotation Yrotation Zrotation
										JOINT LeftHandMiddle3
										{
											OFFSET 3.312172 0.000000 0.000000
											CHANNELS 3 Xrotation Yrotation Zrotation
											End Site
											{
												OFFSET -1.150200 3.080154 0.400270
											}
										}
									}
								}
								JOINT LeftHandRing1
								{
									OFFSET 11.514786 -0.013176 -3.003090
									CHANNELS 3 Xrotation Yrotation Zrotation
									JOINT LeftHandRing2
									{
										OFFSET 3.053307 0.000000 0.000000
										CHANNELS 3 Xrotation Yrotation Zrotation
										JOINT LeftHandRing3
										{
											OFFSET 3.295807 0.000000 0.000000
											CHANNELS 3 Xrotation Yrotation Zrotation
											End Site
											{
												OFFSET -1.281006 3.013344 0.375733
											}
										}
									}
								}
								JOINT LeftHandPinky1
								{
									OFFSET 10.518692 -0.960396 -5.730441
									CHANNELS 3 Xrotation Yrotation Zrotation
									JOINT LeftHandPinky2
									{
										OFFSET 2.861649 0.000000 0.000000
										CHANNELS 3 Xrotation Yrotation Zrotation
										JOINT LeftHandPinky3
										{
											OFFSET 2.863380 0.000000 0.000000
											CHANNELS 3 Xrotation Yrotation Zrotation
											End Site
											{
												OFFSET -0.843597 2.711159 0.369971
											}
										}
									}
								}
							}
							JOINT LSleeve
							{
								OFFSET 6.676277 -0.344902 -1.011730
								CHANNELS 3 Xrotation Yrotation Zrotation
								End Site
								{
									OFFSET 0.000000 14.885353 0.000000
								}
							}
						}
					}
				}
				JOINT RightShoulder
				{
					OFFSET -6.197800 13.665199 -4.064700
					CHANNELS 3 Xrotation Yrotation Zrotation
					JOINT RightArm
					{
						OFFSET -7.778100 -0.187103 -1.709300
						CHANNELS 3 Xrotation Yrotation Zrotation
						JOINT RightForeArm
						{
							OFFSET -22.049376 0.000000 0.000000
							CHANNELS 3 Xrotation Yrotation Zrotation
							JOINT RightHand
							{
								OFFSET -23.009392 0.000000 0.000000
								CHANNELS 3 Xrotation Yrotation Zrotation
								JOINT RightHandThumb1
								{
									OFFSET -3.507191 -2.063065 3.133727
									CHANNELS 3 Xrotation Yrotation Zrotation
									JOINT RightHandThumb2
									{
										OFFSET -3.101337 -1.790558 1.790558
										CHANNELS 3 Xrotation Yrotation Zrotation
										JOINT RightHandThumb3
										{
											OFFSET -3.058640 -1.765907 1.765906
											CHANNELS 3 Xrotation Yrotation Zrotation
											End Site
											{
												OFFSET 0.415260 3.926476 -0.049563
											}
										}
									}
								}
								JOINT RightHandIndex1
								{
									OFFSET -11.334419 -0.901459 3.706815
									CHANNELS 3 Xrotation Yrotation Zrotation
									JOINT RightHandIndex2
									{
										OFFSET -3.283112 0.000000 0.000000
										CHANNELS 3 Xrotation Yrotation Zrotation
										JOINT RightHandIndex3
										{
											OFFSET -3.323853 0.000000 0.000000
											CHANNELS 3 Xrotation Yrotation Zrotation
											End Site
											{
												OFFSET 1.135597 3.097809 0.402452
											}
										}
									}
								}
								JOINT RightHandMiddle1
								{
									OFFSET -11.335861 0.000000 0.000000
									CHANNELS 3 Xrotation Yrotation Zrotation
									JOINT RightHandMiddle2
									{
										OFFSET -3.410492 0.000000 0.000000
										CHANNELS 3 Xrotation Yrotation Zrotation
										JOINT RightHandMiddle3
										{
											OFFSET -3.312172 0.000000 0.000000
											CHANNELS 3 Xrotation Yrotation Zrotation
											End Site
											{
												OFFSET 1.150200 3.080154 0.400270
											}
										}
									}
								}
								JOINT RightHandRing1
								{
									OFFSET -11.514786 -0.013176 -3.003090
									CHANNELS 3 Xrotation Yrotation Zrotation
									JOINT RightHandRing2
									{
										OFFSET -3.053307 0.000000 0.000000
										CHANNELS 3 Xrotation Yrotation Zrotation
										JOINT RightHandRing3
										{
											OFFSET -3.295807 0.000000 0.000000
											CHANNELS 3 Xrotation Yrotation Zrotation
											End Site
											{
												OFFSET 1.281006 3.013344 0.375733
											}
										}
									}
								}
								JOINT RightHandPinky1
								{
									OFFSET -10.518692 -0.960396 -5.730441
									CHANNELS 3 Xrotation Yrotation Zrotation
									JOINT RightHandPinky2
									{
										OFFSET -2.861649 0.000000 0.000000
										CHANNELS 3 Xrotation Yrotation Zrotation
										JOINT RightHandPinky3
										{
											OFFSET -2.863380 0.000000 0.000000
											CHANNELS 3 Xrotation Yrotation Zrotation
											End Site
											{
												OFFSET 0.843597 2.711159 0.369971
											}
										}
									}
								}
							}
							JOINT RSleeve
							{
								OFFSET -6.676277 -0.344902 -1.011730
								CHANNELS 3 Xrotation Yrotation Zrotation
								End Site
								{
									OFFSET 0.000000 14.885353 0.000000
								}
							}
						}
					}
				}
				JOINT Backpack
				{
					OFFSET 0.000000 -2.471497 36.677502
					CHANNELS 3 Xrotation Yrotation Zrotation
					End Site
					{
						OFFSET 0.000000 20.427315 0.000000
					}
				}
				JOINT Hood
				{
					OFFSET 0.000000 18.754097 -10.431000
					CHANNELS 3 Xrotation Yrotation Zrotation
					JOINT Hood1
					{
						OFFSET 0.000000 -5.011002 -7.685901
						CHANNELS 3 Xrotation Yrotation Zrotation
						End Site
						{
							OFFSET 0.000000 9.175140 0.000000
						}
					}
				}
				JOINT LHoodieString
				{
					OFFSET 5.250500 16.397697 3.089900
					CHANNELS 3 Xrotation Yrotation Zrotation
					JOINT LHoodieString1
					{
						OFFSET 0.257700 -6.364304 3.694600
						CHANNELS 3 Xrotation Yrotation Zrotation
						JOINT LHoodieString2
						{
							OFFSET 0.000000 -9.643799 2.679100
							CHANNELS 3 Xrotation Yrotation Zrotation
							End Site
							{
								OFFSET 0.000000 10.009018 0.000000
							}
						}
					}
				}
				JOINT RHoodieString
				{
					OFFSET -5.250500 16.397697 3.089900
					CHANNELS 3 Xrotation Yrotation Zrotation
					JOINT RHoodieString1
					{
						OFFSET -0.257700 -6.364304 3.694600
						CHANNELS 3 Xrotation Yrotation Zrotation
						JOINT RHoodieString2
						{
							OFFSET 0.000000 -9.643799 2.679100
							CHANNELS 3 Xrotation Yrotation Zrotation
							End Site
							{
								OFFSET 0.000000 10.009018 0.000000
							}
						}
					}
				}
			}
			JOINT LBackpack_Strap
			{
				OFFSET 15.223200 -7.719803 -6.610900
				CHANNELS 3 Xrotation Yrotation Zrotation
				End Site
				{
					OFFSET 0.000000 16.040596 0.000000
				}
			}
			JOINT RBackpack_Strap
			{
				OFFSET -15.223000 -7.719803 -6.610900
				CHANNELS 3 Xrotation Yrotation Zrotation
				End Site
				{
					OFFSET 0.000000 16.040596 0.000000
				}
			}
		}
	}
	JOINT BoyFacialAnim_Joint
	{
		OFFSET 1.000000 -82.208099 -1.550900
		CHANNELS 3 Xrotation Yrotation Zrotation
		End Site
		{
			OFFSET 0.000000 30.012791 0.000000
		}
	}
}
MOTION
Frames: 4
Frame Time: 0.016667
0.255731 77.143608 1.231249 22.669371 -0.164190 -7.174851 -0.000001 0.000000 0.000000 -56.331377 -0.170668 -1.757616 71.561039 -3.154322 3.262798 5.282745 1.907383 5.479308 0.000002 0.000000 0.000001 0.000002 0.000000 0.000001 0.000003 0.000001 0.000000 -36.070065 -12.198730 0.323747 36.984962 -3.610417 2.712311 -22.487580 -1.355840 4.016584 0.000000 -0.000001 0.000000 0.000000 -0.000001 0.000000 -0.000002 -0.000001 -0.000000 8.935937 3.132939 0.719969 -0.486219 1.376179 -0.738725 -0.484355 1.393123 -0.752145 -12.183784 0.616444 0.895270 -13.200942 5.313709 -4.930407 0.000000 0.000000 -0.000000 0.000000 0.000000 -0.000000 0.000000 0.000000 -0.000000 0.800072 -1.053362 -19.763349 13.552896 -1.213101 -48.473040 0.000009 -65.396835 0.000011 -23.458473 12.668258 -19.629221 74.823971 -40.508080 61.030254 25.114401 4.278441 -82.291793 0.000001 -0.000006 -0.000000 5.834370 7.878516 -78.812883 5.407317 5.834282 -85.642840 -0.000001 -0.000001 -0.000000 4.932093 8.202281 -90.163374 4.700898 5.737287 -78.644109 -0.000001 0.000001 -0.000001 4.402395 8.246171 -91.663188 5.862426 5.851065 -90.111512 -0.000001 -0.000000 -0.000000 5.304505 8.409992 -100.449249 2.535407 4.823635 -55.434635 -0.000001 0.000001 -0.000002 -0.000000 0.000000 0.000000 0.203547 7.873814 19.585055 11.893546 -9.449215 48.231634 -0.000001 63.146991 0.000004 -2.319526 -16.349531 7.973150 47.809736 35.835387 -5.333800 34.631351 -33.014488 35.094612 -0.000001 -0.000001 0.000001 5.182538 -7.113285 78.876274 4.422142 -4.651269 87.104050 0.000000 -0.000000 0.000004 7.506150 -6.722326 94.665056 4.366849 -4.648125 86.421940 0.000000 -0.000002 0.000001 5.682796 -6.829432 102.073865 3.638046 -4.544532 77.346237 -0.000000 0.000000 -0.000001 5.373743 -6.885342 99.411757 1.706931 -3.605111 50.661323 -0.000001 0.000001 -0.000007 0.000002 -0.000001 -0.000001 -0.000002 0.000000 0.000001 -0.000002 0.000000 0.000001 -0.000002 0.000000 0.000001 -0.000002 0.000000 0.000001 -0.000002 0.000000 0.000000 -0.000002 0.000000 -0.000000 -0.000002 0.000000 0.000001 -0.000002 0.000000 0.000000 -0.000002 0.000000 -0.000000 0.000000 -0.000000 -0.000000 0.000000 -0.000000 -0.000000 -0.000001 0.000000 0.000000 
-0.213393 76.912796 2.989132 22.978319 -0.163018 -6.978395 -0.000002 0.000000 0.000000 -59.763827 0.658705 -2.213326 71.865147 -4.157073 3.279245 2.741983 2.652117 5.105755 -0.000001 0.000000 -0.000000 -0.000001 0.000000 -0.000000 -0.000001 -0.000000 -0.000001 -34.727660 -12.274526 0.656020 37.076060 -3.465253 2.610941 -24.308828 -1.397188 3.929267 -0.000000 0.000001 -0.000000 -0.000000 0.000001 -0.000000 -0.000002 0.000000 -0.000000 8.710355 3.342252 0.363462 -0.496564 1.450543 -0.731987 -0.476995 1.478102 -0.752147 -12.234348 0.523661 0.936671 -13.473424 5.168244 -4.687935 0.000000 0.000000 -0.000000 0.000000 0.000000 -0.000000 0.000000 0.000000 -0.000000 0.809865 -1.055530 -19.698320 13.400031 -1.470144 -48.429364 0.000030 -65.609295 0.000039 -23.708580 13.002237 -19.426757 74.823978 -40.508080 61.030247 25.166956 4.373145 -82.354398 -0.000000 -0.000000 -0.000001 5.840203 7.879098 -78.844972 5.407313 5.834279 -85.642854 -0.000000 0.000000 -0.000002 4.933136 8.202451 -90.173674 4.700470 5.737207 -78.639806 -0.000000 -0.000000 -0.000002 4.398824 8.245258 -91.628422 5.862135 5.851060 -90.108650 -0.000000 0.000001 0.000001 5.300715 8.409608 -100.413425 2.530734 4.820424 -55.379003 -0.000001 0.000001 0.000003 0.000001 0.000003 -0.000001 0.179716 8.056690 19.469471 11.883965 -9.750501 48.141024 0.000002 64.191463 0.000024 -2.283729 -16.744902 8.133056 47.809740 35.835393 -5.333798 34.631354 -33.014491 35.094605 0.000000 0.000000 -0.000001 5.188571 -7.114465 78.876493 4.422142 -4.651260 87.104043 -0.000004 0.000001 0.000002 7.510164 -6.722939 94.643186 4.366605 -4.648117 86.418805 -0.000001 0.000001 -0.000002 5.680136 -6.829996 102.040349 3.638048 -4.544541 77.346244 -0.000001 -0.000001 0.000004 5.371703 -6.885635 99.386390 1.706658 -3.604889 50.656969 -0.000000 -0.000002 0.000005 -0.000001 0.000001 -0.000003 0.000003 0.000000 0.000000 0.000003 0.000000 0.000000 0.000003 0.000000 0.000000 0.000003 0.000000 0.000000 0.000003 0.000000 0.000000 -0.000000 0.000000 -0.000000 0.000003 0.000000 0.000000 0.000003 0.000000 0.000000 -0.000000 0.000000 -0.000000 0.000003 0.000000 -0.000000 0.000003 0.000000 -0.000000 -0.000002 0.000000 0.000000 
-0.680628 76.689766 4.740208 23.290590 -0.157791 -6.774918 -0.000001 0.000000 0.000000 -62.924101 1.522843 -2.627783 71.662741 -5.236597 3.292403 0.421256 3.480226 4.786626 -0.000000 0.000000 0.000000 -0.000000 0.000000 0.000000 0.000000 0.000000 0.000001 -33.238419 -12.495485 1.031339 36.870413 -3.249572 2.373738 -26.013686 -1.420603 3.837829 0.000000 0.000000 -0.000000 0.000000 0.000000 -0.000000 -0.000001 0.000001 -0.000000 8.486868 3.545981 0.001426 -0.507235 1.525119 -0.724557 -0.469546 1.563696 -0.748851 -12.284886 0.430360 0.978019 -13.746421 5.022100 -4.445270 0.000000 0.000001 -0.000000 0.000000 0.000001 -0.000000 0.000000 0.000001 -0.000000 0.829646 -1.055379 -19.576804 13.303901 -1.693185 -48.524345 0.000002 -65.794311 0.000006 -24.000849 13.236738 -19.197119 74.823971 -40.508083 61.030240 25.309111 4.629903 -82.525617 -0.000000 0.000001 0.000001 5.855896 7.880589 -78.934413 5.407313 5.834278 -85.642861 -0.000001 0.000001 -0.000002 4.936101 8.202950 -90.202668 4.699367 5.736984 -78.628748 0.000001 -0.000001 0.000002 4.389612 8.242893 -91.538844 5.861324 5.851059 -90.100693 -0.000001 -0.000001 -0.000000 5.290367 8.408551 -100.315528 2.518113 4.811718 -55.228725 0.000000 0.000000 0.000001 0.000000 -0.000002 0.000001 0.162751 8.201805 19.240262 12.013096 -10.084080 48.107423 -0.000052 65.513235 0.000054 -2.194444 -17.182511 8.317036 47.809736 35.835387 -5.333798 34.631347 -33.014488 35.094605 0.000000 0.000000 0.000000 5.206660 -7.117997 78.877278 4.422150 -4.651256 87.104064 -0.000001 0.000001 0.000004 7.521382 -6.724550 94.584548 4.365932 -4.648075 86.410683 -0.000000 0.000000 -0.000000 5.673257 -6.831447 101.953844 3.638488 -4.544639 77.351804 0.000002 -0.000000 -0.000001 5.371523 -6.885553 99.321121 1.705954 -3.604328 50.645767 0.000002 0.000003 -0.000001 -0.000002 -0.000001 0.000001 0.000000 0.000000 0.000000 0.000000 0.000000 0.000000 0.000000 0.000000 0.000000 0.000000 0.000000 0.000000 0.000000 0.000000 -0.000000 0.000000 0.000001 -0.000000 0.000000 0.000000 0.000000 0.000000 0.000000 -0.000000 0.000000 0.000001 -0.000000 0.000002 -0.000000 0.000001 0.000002 -0.000000 0.000001 -0.000001 0.000000 0.000000 
-1.147168 76.442368 6.489204 23.630725 -0.159670 -6.542844 -0.000000 -0.000000 -0.000000 -65.899543 2.349254 -3.019006 70.947641 -6.347412 3.263943 -1.695684 4.458727 4.464726 0.000000 0.000000 0.000000 0.000000 0.000000 0.000000 0.000001 -0.000000 0.000000 -31.711486 -12.814742 1.401092 36.531827 -2.954696 2.045059 -27.659397 -1.435445 3.760826 -0.000000 -0.000000 0.000000 -0.000000 -0.000000 0.000000 -0.000002 0.000000 0.000000 8.258674 3.737038 -0.379114 -0.520796 1.601803 -0.710189 -0.460741 1.655481 -0.739871 -12.336257 0.331890 1.018789 -14.027066 4.875327 -4.190919 0.000001 -0.000000 0.000001 0.000001 -0.000000 0.000001 0.000001 -0.000000 0.000001 0.857945 -1.055086 -19.402793 13.266432 -1.833229 -48.691657 0.000018 -65.913839 0.000040 -24.290236 13.359652 -18.989972 74.823978 -40.508080 61.030247 25.517185 5.007318 -82.781654 -0.000001 0.000003 -0.000001 5.878728 7.882579 -79.070901 5.407310 5.834280 -85.642847 0.000000 -0.000001 -0.000002 4.940650 8.203705 -90.247255 4.697849 5.736685 -78.613606 0.000000 -0.000002 0.000003 4.377026 8.239650 -91.416345 5.860106 5.851065 -90.088747 0.000001 0.000001 -0.000000 5.274980 8.406953 -100.169826 2.499675 4.798911 -55.008643 -0.000000 0.000000 0.000003 0.000002 -0.000001 0.000001 0.154743 8.315182 18.934698 12.291665 -10.409288 48.204357 -0.000011 66.924468 0.000011 -2.085134 -17.592962 8.432653 47.809736 35.835393 -5.333804 34.631354 -33.014491 35.094605 -0.000000 -0.000001 0.000001 5.237262 -7.123821 78.883993 4.422151 -4.651264 87.104043 -0.000003 0.000002 0.000004 7.538625 -6.726865 94.499636 4.365038 -4.648020 86.399591 0.000003 -0.000000 -0.000000 5.663856 -6.833415 101.835621 3.639144 -4.544780 77.360198 0.000001 0.000000 0.000002 5.371735 -6.885381 99.231864 1.704986 -3.603527 50.630451 -0.000001 -0.000001 0.000004 0.000000 -0.000001 -0.000001 -0.000000 -0.000000 0.000000 -0.000000 -0.000000 0.000000 -0.000000 -0.000000 0.000000 -0.000000 -0.000000 0.000000 -0.000000 -0.000000 0.000000 -0.000002 -0.000000 0.000001 -0.000000 -0.000000 0.000000 -0.000000 -0.000000 0.000000 -0.000002 -0.000000 0.000001 -0.000001 0.000000 0.000000 -0.000001 0.000000 0.000000 -0.000000 -0.000000 -0.000000 
